<svg width="20" height="20" viewBox="0 0 20 20" fill="none" xmlns="http://www.w3.org/2000/svg">
<path d="M5.95745 6.59574C5.95745 6.42646 6.02469 6.2641 6.1444 6.1444C6.2641 6.02469 6.42646 5.95745 6.59574 5.95745H13.4043C13.5735 5.95745 13.7359 6.02469 13.8556 6.1444C13.9753 6.2641 14.0426 6.42646 14.0426 6.59574C14.0426 6.76503 13.9753 6.92738 13.8556 7.04709C13.7359 7.16679 13.5735 7.23404 13.4043 7.23404H6.59574C6.42646 7.23404 6.2641 7.16679 6.1444 7.04709C6.02469 6.92738 5.95745 6.76503 5.95745 6.59574ZM6.59574 10.6383H13.4043C13.5735 10.6383 13.7359 10.571 13.8556 10.4513C13.9753 10.3316 14.0426 10.1693 14.0426 10C14.0426 9.83071 13.9753 9.66836 13.8556 9.54865C13.7359 9.42895 13.5735 9.3617 13.4043 9.3617H6.59574C6.42646 9.3617 6.2641 9.42895 6.1444 9.54865C6.02469 9.66836 5.95745 9.83071 5.95745 10C5.95745 10.1693 6.02469 10.3316 6.1444 10.4513C6.2641 10.571 6.42646 10.6383 6.59574 10.6383ZM10 12.766H6.59574C6.42646 12.766 6.2641 12.8332 6.1444 12.9529C6.02469 13.0726 5.95745 13.235 5.95745 13.4043C5.95745 13.5735 6.02469 13.7359 6.1444 13.8556C6.2641 13.9753 6.42646 14.0426 6.59574 14.0426H10C10.1693 14.0426 10.3316 13.9753 10.4513 13.8556C10.571 13.7359 10.6383 13.5735 10.6383 13.4043C10.6383 13.235 10.571 13.0726 10.4513 12.9529C10.3316 12.8332 10.1693 12.766 10 12.766ZM20 1.48936V13.0521C20.0004 13.2478 19.962 13.4415 19.8871 13.6223C19.8123 13.8031 19.7024 13.9672 19.5638 14.1053L14.1053 19.5638C13.9672 19.7024 13.8031 19.8123 13.6223 19.8871C13.4415 19.962 13.2478 20.0004 13.0521 20H1.48936C1.09436 20 0.715533 19.8431 0.436224 19.5638C0.156915 19.2845 0 18.9056 0 18.5106V1.48936C0 1.09436 0.156915 0.715533 0.436224 0.436224C0.715533 0.156915 1.09436 0 1.48936 0H18.5106C18.9056 0 19.2845 0.156915 19.5638 0.436224C19.8431 0.715533 20 1.09436 20 1.48936ZM1.48936 18.7234H12.766V13.4043C12.766 13.235 12.8332 13.0726 12.9529 12.9529C13.0726 12.8332 13.235 12.766 13.4043 12.766H18.7234V1.48936C18.7234 1.43293 18.701 1.37881 18.6611 1.33891C18.6212 1.29901 18.5671 1.2766 18.5106 1.2766H1.48936C1.43293 1.2766 1.37881 1.29901 1.33891 1.33891C1.29901 1.37881 1.2766 1.43293 1.2766 1.48936V18.5106C1.2766 18.5671 1.29901 18.6212 1.33891 18.6611C1.37881 18.701 1.43293 18.7234 1.48936 18.7234ZM17.8213 14.0426H14.0426V17.8213L17.8213 14.0426Z" fill="#FFFCCA"/>
</svg>
