<svg width="20" height="20" viewBox="0 0 20 20" fill="none" xmlns="http://www.w3.org/2000/svg">
<g clip-path="url(#clip0_499_607)">
<path fill-rule="evenodd" clip-rule="evenodd" d="M15.4117 3.16753C17.1575 4.18503 18.3858 6.25086 18.3317 8.66086C18.2642 11.6692 15.9233 14.3225 11.9325 16.6925C11.3408 17.0442 10.7175 17.5 10 17.5C9.29585 17.5 8.64585 17.0359 8.06668 16.6917C4.07752 14.3225 1.73585 11.6684 1.66835 8.66086C1.61418 6.25086 2.84252 4.18586 4.58835 3.16753C6.22168 2.21669 8.27335 2.21086 10 3.61503C11.7267 2.21086 13.7783 2.21586 15.4117 3.16753ZM14.5725 4.60836C13.4108 3.93169 11.9592 3.95586 10.7025 5.22753C10.6105 5.3202 10.5011 5.39375 10.3805 5.44394C10.2599 5.49413 10.1306 5.51997 10 5.51997C9.86942 5.51997 9.74011 5.49413 9.61955 5.44394C9.49898 5.39375 9.38953 5.3202 9.29752 5.22753C8.04085 3.95586 6.58918 3.93169 5.42752 4.60836C4.22418 5.31003 3.29418 6.79836 3.33502 8.62503C3.38168 10.7175 5.03502 12.9534 8.91835 15.26C9.25835 15.4625 9.61335 15.7217 10 15.8292C10.3867 15.7217 10.7417 15.4625 11.0817 15.26C14.965 12.9534 16.6183 10.7184 16.665 8.62419C16.7067 6.79919 15.7758 5.31003 14.5725 4.60836Z" fill="white"/>
</g>
<defs>
<clipPath id="clip0_499_607">
<rect width="20" height="20" fill="white"/>
</clipPath>
</defs>
</svg>
