<svg width="66" height="66" viewBox="0 0 66 66" fill="none" xmlns="http://www.w3.org/2000/svg">
<path d="M33 9.64062C26.8432 9.64062 20.9385 12.1017 16.585 16.4824C12.2315 20.8632 9.78571 26.8047 9.78571 33C9.78571 39.1953 12.2315 45.1368 16.585 49.5176C20.9385 53.8983 26.8432 56.3594 33 56.3594C39.1568 56.3594 45.0615 53.8983 49.415 49.5176C53.7685 45.1368 56.2143 39.1953 56.2143 33C56.2143 26.8047 53.7685 20.8632 49.415 16.4824C45.0615 12.1017 39.1568 9.64063 33 9.64062ZM65.5 33C65.5 41.6734 62.0759 49.9916 55.981 56.1246C49.886 62.2576 41.6195 65.7031 33 65.7031C24.3805 65.7031 16.114 62.2576 10.019 56.1246C3.9241 49.9916 0.5 41.6734 0.5 33C0.5 24.3266 3.9241 16.0084 10.019 9.8754C16.114 3.74237 24.3805 0.296875 33 0.296875C41.6195 0.296875 49.886 3.74237 55.981 9.8754C62.0759 16.0084 65.5 24.3266 65.5 33Z" fill="white"/>
</svg>
