<svg width="20" height="20" viewBox="0 0 20 20" fill="none" xmlns="http://www.w3.org/2000/svg">
<g clip-path="url(#clip0_28_282)">
<path d="M18.8888 9.32224C19.0953 9.16842 19.2485 8.95383 19.3268 8.70858C19.4052 8.46332 19.4049 8.19968 19.3258 7.95463C19.2468 7.70958 19.0931 7.49541 18.8862 7.34215C18.6793 7.18889 18.4296 7.10422 18.1722 7.10001L13.1722 6.91112C13.1476 6.90943 13.124 6.90066 13.1043 6.88587C13.0846 6.87109 13.0696 6.85092 13.0611 6.82779L11.3333 2.16113C11.2465 1.9237 11.0888 1.71869 10.8816 1.57384C10.6744 1.429 10.4277 1.35132 10.175 1.35132C9.92216 1.35132 9.67547 1.429 9.46828 1.57384C9.2611 1.71869 9.10343 1.9237 9.01662 2.16113L7.2944 6.84446C7.28588 6.86758 7.27087 6.88775 7.25115 6.90254C7.23144 6.91733 7.20787 6.9261 7.18329 6.92779L2.18329 7.11668C1.92584 7.12089 1.67617 7.20555 1.46928 7.35882C1.26239 7.51208 1.10865 7.72625 1.02962 7.9713C0.950597 8.21635 0.950242 8.47998 1.02861 8.72524C1.10698 8.9705 1.26014 9.18508 1.46662 9.3389L5.38884 12.4222C5.40847 12.4377 5.42314 12.4585 5.43104 12.4822C5.43894 12.5059 5.43972 12.5314 5.43329 12.5556L4.08329 17.3389C4.01333 17.5825 4.02011 17.8417 4.1027 18.0813C4.18529 18.3209 4.33968 18.5292 4.54487 18.6779C4.75006 18.8267 4.99609 18.9086 5.24948 18.9125C5.50288 18.9165 5.75134 18.8423 5.96106 18.7L10.1055 15.9222C10.1259 15.9081 10.1501 15.9006 10.175 15.9006C10.1998 15.9006 10.224 15.9081 10.2444 15.9222L14.3888 18.7C14.5957 18.8471 14.8433 18.9262 15.0972 18.9262C15.351 18.9262 15.5986 18.8471 15.8055 18.7C16.0108 18.5527 16.1653 18.3454 16.2479 18.1066C16.3304 17.8678 16.337 17.6093 16.2666 17.3667L14.9055 12.5667C14.8983 12.5426 14.8987 12.5168 14.9066 12.493C14.9146 12.4691 14.9297 12.4483 14.95 12.4333L18.8888 9.32224Z" fill="#FFFCCA"/>
</g>
<defs>
<clipPath id="clip0_28_282">
<rect width="20" height="20" fill="white"/>
</clipPath>
</defs>
</svg>
