<svg width="16" height="16" viewBox="0 0 16 16" fill="none" xmlns="http://www.w3.org/2000/svg">
<g clip-path="url(#clip0_182_116)">
<path d="M2.08785 7.59601V13.3216H4.51185L4.63425 13.336C6.88465 13.8608 8.37585 14.2392 9.11905 14.4736C10.1062 14.7848 10.4742 14.8608 11.1438 14.9056C11.6446 14.94 12.2134 14.7472 12.4726 14.4832C12.6158 14.3376 12.723 14.0384 12.7654 13.5744C12.7742 13.4771 12.809 13.384 12.8662 13.3047C12.9233 13.2255 13.0007 13.1631 13.0902 13.124C13.2894 13.0376 13.455 12.8968 13.5934 12.692C13.7214 12.5048 13.8046 12.156 13.8198 11.6512C13.8225 11.5584 13.8488 11.4678 13.8963 11.388C13.9437 11.3082 14.0108 11.2419 14.091 11.1952C14.5566 10.9256 14.787 10.6216 14.835 10.2648C14.8878 9.87041 14.7598 9.42641 14.4246 8.92081C14.346 8.80224 14.3167 8.65766 14.343 8.51782C14.3693 8.37799 14.4491 8.25392 14.5654 8.17201C14.8862 7.94641 15.0622 7.63281 15.1062 7.18801C15.1766 6.47921 14.7246 5.95522 13.7014 5.85042C12.7901 5.76028 11.87 5.837 10.9862 6.07682C10.886 6.10301 10.7803 6.10004 10.6817 6.06823C10.5831 6.03642 10.4956 5.97711 10.4296 5.89727C10.3635 5.81744 10.3216 5.72039 10.3089 5.61756C10.2961 5.51473 10.3129 5.41039 10.3574 5.31681C10.7574 4.47041 10.9798 3.77201 11.0318 3.23121C11.0998 2.51361 10.9342 1.99361 10.547 1.56481C10.2534 1.24001 9.78385 1.05441 9.60785 1.09281C9.37585 1.14241 9.22465 1.27681 9.02785 1.74721C8.91185 2.02561 8.85585 2.26241 8.75985 2.81521C8.66785 3.34001 8.61745 3.57682 8.51265 3.88722C8.19665 4.82802 7.42145 5.80321 6.38065 6.47601C5.6512 6.94699 4.86064 7.31575 4.03105 7.57201C3.97922 7.58799 3.92528 7.59608 3.87105 7.59601H2.08785ZM2.05425 14.412C1.79585 14.4192 1.56385 14.3616 1.36945 14.2256C1.12145 14.052 1.00465 13.7784 1.00225 13.4632L1.00465 7.60481C0.977446 7.29281 1.06945 7.00641 1.28705 6.79361C1.49105 6.59361 1.75745 6.49921 2.03905 6.50561H3.78705C4.49413 6.28031 5.16826 5.96235 5.79185 5.56001C6.63025 5.01761 7.24785 4.24001 7.48385 3.53921C7.56465 3.29761 7.60785 3.09761 7.68945 2.62721C7.79985 1.99601 7.86865 1.70241 8.02705 1.32481C8.35505 0.539215 8.78545 0.155215 9.37905 0.0264147C9.96305 -0.0999853 10.8134 0.236815 11.351 0.832015C11.947 1.49121 12.2102 2.31601 12.1126 3.33522C12.071 3.77362 11.9494 4.26401 11.7494 4.81041C12.4325 4.71088 13.1251 4.69583 13.8118 4.76561C15.4174 4.92961 16.319 5.97521 16.1878 7.29681C16.1302 7.86641 15.9238 8.35041 15.5726 8.73041C15.8678 9.29921 15.9854 9.86161 15.9118 10.4104C15.827 11.0424 15.475 11.5688 14.8894 11.9776C14.8438 12.532 14.7166 12.9744 14.491 13.3056C14.3133 13.5732 14.0814 13.8005 13.8102 13.9728C13.7238 14.52 13.5422 14.948 13.2454 15.2488C12.7534 15.7496 11.8742 16.048 11.071 15.9936C10.3086 15.9424 9.85745 15.8496 8.79345 15.5136C8.09185 15.292 6.63905 14.924 4.44945 14.412H2.05425ZM3.41505 7.34721C3.41484 7.27564 3.42875 7.20473 3.456 7.13854C3.48324 7.07236 3.52328 7.0122 3.57381 6.96151C3.62435 6.91083 3.68439 6.87061 3.7505 6.84318C3.8166 6.81574 3.88747 6.80161 3.95905 6.80161C4.03048 6.80182 4.10118 6.8161 4.1671 6.84364C4.23302 6.87117 4.29288 6.91142 4.34324 6.96208C4.39361 7.01274 4.4335 7.07283 4.46065 7.13891C4.48779 7.20499 4.50166 7.27578 4.50145 7.34721V13.4896C4.50155 13.5611 4.48758 13.6318 4.46034 13.6979C4.4331 13.7639 4.39312 13.8239 4.34268 13.8745C4.29224 13.9251 4.23233 13.9653 4.16636 13.9927C4.1004 14.0201 4.02968 14.0343 3.95825 14.0344C3.88681 14.0343 3.81609 14.0201 3.75013 13.9927C3.68417 13.9653 3.62425 13.9251 3.57381 13.8745C3.52337 13.8239 3.48339 13.7639 3.45615 13.6979C3.42891 13.6318 3.41494 13.5611 3.41505 13.4896V7.34721Z" fill="#11D3BC"/>
</g>
<defs>
<clipPath id="clip0_182_116">
<rect width="16" height="16" fill="white"/>
</clipPath>
</defs>
</svg>
