<svg width="15" height="14" viewBox="0 0 15 14" fill="none" xmlns="http://www.w3.org/2000/svg">
<path d="M4.33333 4.33333H9.66667M4.33333 7H8.33333M8 11.3333L7 12.3333L5 10.3333H3C2.46957 10.3333 1.96086 10.1226 1.58579 9.74755C1.21071 9.37247 1 8.86377 1 8.33333V3C1 2.46957 1.21071 1.96086 1.58579 1.58579C1.96086 1.21071 2.46957 1 3 1H11C11.5304 1 12.0391 1.21071 12.4142 1.58579C12.7893 1.96086 13 2.46957 13 3V7M13.6667 13L10.3333 9.66667M10.3333 13L13.6667 9.66667" stroke="#42CFC4" stroke-width="1.66667" stroke-linecap="round" stroke-linejoin="round"/>
</svg>
